# xmcd CD database file
#
# Track frame offsets:
#	150
#	14494
#	27650
#	41238
#	56705
#	67799
#	81158
#	94146
#	107408
#	120876
#	136211
#	151167
#	163269
#	177457
#	189456
#	197188
#	209826
#	222885
#	235025
#	249550
#
# Disc length: 3512 seconds
#
# Revision: 5
# Processed by: cddbd v1.5.2PL0 Copyright (c) Steve Scherf et al.
# Submitted via: CDex 1.51
#
DISCID=1c0db614
DTITLE=Various Artist - The Essential Cole Porter (1891-1964)  [CD 1-3]
DYEAR=2005
DGENRE=Jazz
TTITLE0=Cole Porter - Anything Goes
TTITLE1=Frank Sinatra - I Get a Kick out of You
TTITLE2=Bing Crosby - All through the Night
TTITLE3=Cole Porter - You're the Top
TTITLE4=Ethel Merman - Blow, Gabriel, Blow
TTITLE5=Billie Holiday - Let's Do It
TTITLE6=Irving Aaronson - Let's Misbehave
TTITLE7=Cole Porter - Be Like the Bluebird
TTITLE8=Marlene Dietrich - You Do Something to Me
TTITLE9=Lee Wiley - Looking at You
TTITLE10=Libby Holman - Love for Sale
TTITLE11=Anita O'Day - What Is This Thing Called Love ¿
TTITLE12=Jack Hylton - They All Fall in Love
TTITLE13=Frances Langford - Swingin' the Jinx Away
TTITLE14=Nelson eddy - Rosalie
TTITLE15=Nelson Eddy - Who Knows
TTITLE16=Billy Eckstine - In the Still of the Night
TTITLE17=Lena Horne - At Long Last Love
TTITLE18=Lee Wiley - Find Me a Primitive Man
TTITLE19=Bing Crosby and the Andrews Sisters - Don't Fence Me In
EXTD=YEAR: 2005
EXTT0=
EXTT1=
EXTT2=
EXTT3=
EXTT4=
EXTT5=
EXTT6=
EXTT7=
EXTT8=
EXTT9=
EXTT10=
EXTT11=
EXTT12=
EXTT13=
EXTT14=
EXTT15=
EXTT16=
EXTT17=
EXTT18=
EXTT19=
PLAYORDER=
